<?xml version="1.0" standalone="no"?>
<!DOCTYPE svg PUBLIC "-//W3C//DTD SVG 20010904//EN"
 "http://www.w3.org/TR/2001/REC-SVG-20010904/DTD/svg10.dtd">
<svg version="1.0" xmlns="http://www.w3.org/2000/svg"
 width="48.000000pt" height="48.000000pt" viewBox="0 0 48.000000 48.000000"
 preserveAspectRatio="xMidYMid meet">

<g transform="translate(0.000000,48.000000) scale(0.100000,-0.100000)"
fill="#000000" stroke="none">
<path d="M30 463 c2 -61 38 -405 44 -411 4 -3 41 -16 83 -28 l75 -22 85 23
c47 13 87 25 89 27 2 2 10 80 19 174 8 93 17 188 20 212 l5 42 -210 0 c-193 0
-210 -1 -210 -17z m350 -75 c0 -7 -3 -24 -7 -37 -6 -24 -7 -24 -105 -17 l-98
6 0 -25 0 -25 99 0 100 0 -6 -72 c-3 -40 -10 -80 -14 -89 -5 -10 -31 -22 -58
-29 -42 -10 -59 -9 -104 4 -48 14 -55 19 -61 47 -10 53 -8 59 24 59 25 0 30
-4 30 -24 0 -18 7 -25 29 -29 33 -7 73 1 83 17 4 6 8 21 8 34 0 21 -3 22 -89
22 l-88 0 -7 31 c-3 17 -6 53 -6 80 l0 48 68 4 c164 8 202 7 202 -5z"/>
</g>
</svg>
